                        =!DK GROUP HD BLURAY RELEAESEES!=

===================================================================================



 Princess Protection Program(2009)Extended Edition DVDRip In[Hindi-Eng]By !!!dip


===================================================================================

Storyline:

When a tiny country is invaded by a dictator, a young Princess (later known as Rosie) is taken into custody by the Princess Protection Program. She is whisked away to rural Louisiana where she must learn the ins and outs of behaving like a normal American teenager. In the process of adapting to her new life, Rosie gives her new friend and roommate, Carter, a few lessons in how to act with royal aplomb.

Cast:


Demi Lovato	 ...	Rosalinda Montoya / Rosie Gonzalez
Selena Gomez	 ...	Carter Mason
Nicholas Braun	 ...	Ed
Molly Hagan	 ...	The Director
Johnny Ray	 ...	General Magnus Kane (as Johnny Ray Rodriguez)
Jamie Chung	 ...	Chelsea
Samantha Droke	 ...	Brooke
Robert Adamson	 ...	Donny
Kevin G. Schmidt ...	Bull
Dale Dickey	 ...	Helen
Sully Diaz	 ...	Queen Sophia
Tom Verica	 ...	Joe Mason
Jessenia Da Silva...	Chloe (as Jessenia Da Silva Rios)
Ángel Vázquez	 ...	Dimitri
Brian Tester	 ...	Principal Burkle


Directors:Allison Liddi-Brown
Writers:Annie DeYoung (story), Annie DeYoung
Stars: Demi Lovato, Selena Gomez and Nicholas Braun
Genre:Comedy | Drama | Family
Language:[Hindi-English]
Format :Color, Dubbed,Widescreen
Release Date :26 June 2009 (USA)
Run Time :01H:25M:45S
Encoder: Deep Shikha



Video Specifications:

Video
ID : 1
Format : MPEG-4 Visual
Format profile : Advanced Simple@L5
Format settings, BVOP : Yes
Format settings, QPel : No
Format settings, GMC : No warppoints
Format settings, Matrix : Default (H.263)
Codec ID : XVID
Codec ID/Hint : XviD
Duration : 1h 25mn
Bit rate : 710 Kbps
Width : 608 pixels
Height : 336 pixels
Display aspect ratio : 16:9
Frame rate : 25.000 fps
Original frame rate : 23.976 fps
Color space : YUV
Chroma subsampling : 4:2:0
Bit depth : 8 bits
Scan type : Progressive
Compression mode : Lossy
Bits/(Pixel*Frame) : 0.139
Stream size : 436 MiB (45%)
Title : !!!dip
Team : DK Group HD Bluray Releases




Audio Specifications:

Audio #1
ID : 2
Format : AC-3
Format/Info : Audio Coding 3
Mode extension : CM (complete main)
Muxing mode : Header stripping
Codec ID : A_AC3
Duration : 1h 25mn
Bit rate mode : Constant
Bit rate : 384 Kbps
Channel(s) : 6 channels
Channel positions : Front: L C R, Side: L R, LFE
Sampling rate : 48.0 KHz
Bit depth : 16 bits
Compression mode : Lossy
Delay relative to video : 1s 439ms
Stream size : 236 MiB (24%)
Title : !!!dip
Language : English

Audio #2
ID : 3
Format : AC-3
Format/Info : Audio Coding 3
Mode extension : CM (complete main)
Muxing mode : Header stripping
Codec ID : A_AC3
Duration : 1h 25mn
Bit rate mode : Constant
Bit rate : 448 Kbps
Channel(s) : 6 channels
Channel positions : Front: L C R, Side: L R, LFE
Sampling rate : 48.0 KHz
Bit depth : 16 bits
Compression mode : Lossy
Delay relative to video : 1s 800ms
Stream size : 275 MiB (28%)
Title : !!!dip
Language : Hindi

Text
ID : 4
Format : UTF-8
Codec ID : S_TEXT/UTF8
Codec ID/Info : UTF-8 Plain Text
Title : !!!dip
Language : English


SAMPLE IMAGE:

     
http://www.shotpix.com/images/63051028030324893073.jpg
 
http://www.shotpix.com/images/05090577992877758129.jpg
 
http://www.shotpix.com/images/40590246025243799226.jpg
 
http://www.shotpix.com/images/28901007262527520920.jpg


VIDEO SAMPLE IS AVAILABLE		